<svg xmlns="http://www.w3.org/2000/svg" viewBox="0 0 927.5 212.61"><defs><style>.cls-1{fill:#138ab1;}.cls-2{fill:#0cade2;}.cls-3{fill:#fff;}.cls-4{fill:#d5dae0;}</style></defs><title>logow</title><g id="Слой_2" data-name="Слой 2"><g id="Слой_1-2" data-name="Слой 1"><path class="cls-1" d="M140.35,5.49c5.79,23,8.45,48.37,8.2,74.24a361.5,361.5,0,0,1-11.36,86.1A305.18,305.18,0,0,1,121.33,212a106.54,106.54,0,0,0,19-206.52"/><path class="cls-2" d="M49.81,128.25c18.76-12.13,34.8-30.74,45.76-53.07A151.87,151.87,0,0,0,110.83.09C109.4,0,108,0,106.52,0a106.58,106.58,0,0,0-100,143.31c15.23-1.09,29.94-6.44,43.28-15.06"/><path class="cls-1" d="M120.25,154.68A292.2,292.2,0,0,0,129.45,85c.05-5.3,0-10.58-.31-15.81a196.37,196.37,0,0,1-9,21.6C106,119.62,85.21,143.67,61,159.36a125.64,125.64,0,0,1-35.68,16,106.33,106.33,0,0,0,71.65,37.2c10-16.91,17.84-36.77,23.32-57.93"/><path class="cls-3" d="M280.3,62.35h35.4q20.79,0,34.86,13.81A45.53,45.53,0,0,1,364.64,110a45.5,45.5,0,0,1-14.08,33.8q-14.07,13.81-34.86,13.82H280.3Zm35.4,18.39H300.76v58.51H315.7a27.29,27.29,0,0,0,20.19-8.5A28.46,28.46,0,0,0,344.25,110a28.86,28.86,0,0,0-8.16-20.76,27.16,27.16,0,0,0-20.39-8.5"/><polygon class="cls-3" points="404.09 139.25 455.09 139.25 455.09 157.58 383.63 157.58 383.63 62.35 453.69 62.35 453.69 80.74 404.09 80.74 404.09 99.8 442.8 99.8 442.8 118.13 404.09 118.13 404.09 139.25"/><polygon class="cls-3" points="499.85 157.58 464.52 62.35 486.3 62.35 510.74 133.07 535.24 62.35 557.02 62.35 521.63 157.58 499.85 157.58"/><path class="cls-4" d="M612.74,60.36a50.93,50.93,0,0,1,14.27,2,42.71,42.71,0,0,1,11.13,4.74,77.76,77.76,0,0,1,7.7,5.58,31.25,31.25,0,0,1,4.81,4.72l1.53,2-12.95,13c-.26-.36-.63-.85-1.09-1.5a37.69,37.69,0,0,0-8.4-7.37,35.31,35.31,0,0,0-7.51-3.25,30.7,30.7,0,0,0-9.49-1.49q-13.35,0-22.32,9t-9,22.31q0,13.35,9,22.32t22.32,9a34,34,0,0,0,9.92-1.43,32.49,32.49,0,0,0,7.87-3.38,50.75,50.75,0,0,0,5.51-4A20.24,20.24,0,0,0,639.5,129l1.06-1.39,12.28,13a24.83,24.83,0,0,1-1.62,2.09,56.14,56.14,0,0,1-4.85,4.58,51.53,51.53,0,0,1-8,5.78,52.65,52.65,0,0,1-11.23,4.55,50.32,50.32,0,0,1-14.37,2q-21.79,0-36.76-14.57T561,110q0-20.52,15-35.06t36.76-14.54"/><path class="cls-4" d="M724.89,135.13H688.17L680,157.58H658.22l37.46-95.23h21.71l37.45,95.23H733.06Zm-6.77-17.66L706.57,86.19,695,117.47Z"/><path class="cls-4" d="M768.39,157.58V62.35h42.17q14.15,0,23.41,9.06a29.92,29.92,0,0,1,9.26,22.22,31.44,31.44,0,0,1-1.79,10.69,28.23,28.23,0,0,1-4.22,8,38.08,38.08,0,0,1-5,5.25,18.68,18.68,0,0,1-4.31,3l-1.73.93,20.39,36.06H824.84l-18.33-33.34H788.84v33.34Zm54.45-64a12.43,12.43,0,0,0-3.68-9.23,12.62,12.62,0,0,0-9.26-3.66H788.84v25.17H809.9a12.81,12.81,0,0,0,9.26-3.55,11.64,11.64,0,0,0,3.68-8.73"/><polygon class="cls-4" points="852.73 62.35 927.5 62.35 927.5 80.75 900.34 80.75 900.34 157.58 879.95 157.58 879.95 80.75 852.73 80.75 852.73 62.35"/></g></g></svg>