<svg xmlns="http://www.w3.org/2000/svg" viewBox="0 0 936.24 254"><defs><style>.cls-1{fill:#fff;}.cls-2{fill:#fff;}.cls-3{fill:#fff;}</style></defs><g id="Слой_2" data-name="Слой 2"><g id="Слой_1-2" data-name="Слой 1"><path class="cls-1" d="M167.67,6.56c6.92,27.52,10.1,57.79,9.8,88.69A431.51,431.51,0,0,1,163.9,198.12a365.35,365.35,0,0,1-19,55.17A127.28,127.28,0,0,0,167.67,6.56Z"/><path class="cls-2" d="M59.5,153.22c22.42-14.5,41.58-36.72,54.67-63.4A181.31,181.31,0,0,0,132.41.1C130.7,0,129,0,127.25,0A127.34,127.34,0,0,0,7.8,171.22C26,169.91,43.57,163.52,59.5,153.22Z"/><path class="cls-1" d="M143.66,184.8a349,349,0,0,0,11-83.29c.06-6.34-.06-12.65-.36-18.89a234.46,234.46,0,0,1-10.78,25.79c-16.93,34.5-41.7,63.23-70.68,82A149.7,149.7,0,0,1,30.2,209.56,127,127,0,0,0,115.8,254C127.74,233.8,137.11,210.07,143.66,184.8Z"/><path class="cls-3" d="M289,83.74h35.4q20.78,0,34.86,13.82a45.5,45.5,0,0,1,14.08,33.8,45.53,45.53,0,0,1-14.08,33.8Q345.23,179,324.44,179H289Zm35.4,18.4H309.5v58.5h14.94a27.29,27.29,0,0,0,20.19-8.5A28.49,28.49,0,0,0,353,131.39a28.81,28.81,0,0,0-8.17-20.75A27.09,27.09,0,0,0,324.44,102.14Z"/><path class="cls-3" d="M412.83,160.64h51V179H392.37V83.74h70.06v18.4h-49.6V121.2h38.71v18.32H412.83Z"/><path class="cls-3" d="M508.58,179,473.25,83.74H495l24.43,70.73L544,83.74h21.78L530.36,179Z"/><path class="cls-1" d="M621.47,81.75a51,51,0,0,1,14.28,2,42.62,42.62,0,0,1,11.12,4.75A78,78,0,0,1,654.58,94a31.75,31.75,0,0,1,4.81,4.71l1.53,2-12.95,13c-.27-.35-.63-.85-1.1-1.49a30,30,0,0,0-3.12-3.29,30.75,30.75,0,0,0-5.28-4.08,34.46,34.46,0,0,0-7.5-3.26,31,31,0,0,0-9.5-1.49q-13.34,0-22.31,9t-9,22.32q0,13.33,9,22.31t22.31,9a34.3,34.3,0,0,0,9.93-1.42,32.48,32.48,0,0,0,7.87-3.39,50.74,50.74,0,0,0,5.51-3.95,20.6,20.6,0,0,0,3.46-3.46L649.3,149,661.58,162a23.3,23.3,0,0,1-1.62,2.09,56.14,56.14,0,0,1-4.85,4.58,51.15,51.15,0,0,1-8,5.78A51.82,51.82,0,0,1,635.85,179,50.4,50.4,0,0,1,621.47,181q-21.78,0-36.75-14.58t-15-35.09q0-20.52,15-35.07T621.47,81.75Z"/><path class="cls-1" d="M733.63,156.52H696.91L688.74,179H667l37.46-95.23h21.71L763.58,179H741.8Zm-6.77-17.66-11.55-31.28-11.63,31.28Z"/><path class="cls-1" d="M777.13,179V83.74H819.3q14.15,0,23.41,9.07A29.88,29.88,0,0,1,852,115a31.44,31.44,0,0,1-1.79,10.69,28.44,28.44,0,0,1-4.22,8,39.83,39.83,0,0,1-5,5.24,18.68,18.68,0,0,1-4.31,3l-1.73.93L855.36,179H833.58l-18.33-33.34H797.58V179ZM831.58,115a12.46,12.46,0,0,0-3.68-9.23,12.66,12.66,0,0,0-9.27-3.65h-21v25.17h21a12.83,12.83,0,0,0,9.27-3.56A11.66,11.66,0,0,0,831.58,115Z"/><path class="cls-1" d="M861.47,83.74h74.77v18.4H909.08V179H888.69V102.14H861.47Z"/></g></g></svg>