<svg xmlns="http://www.w3.org/2000/svg" viewBox="0 0 800.03 300"><defs><style>.cls-1{fill:#fff;}</style></defs><title>gpay</title><g id="Слой_2" data-name="Слой 2"><g id="Слой_1-2" data-name="Слой 1"><path class="cls-1" d="M800,66.68,695.61,300h-32.3l38.8-81.65L633.36,66.65h34l49.75,116.28h.65L765.91,66.65ZM366.18,138.83v94.52H333.36V0h86.85A82.26,82.26,0,0,1,476.46,20.2C491.83,32.83,500.28,50.68,500,69.55A62.28,62.28,0,0,1,476.46,119c-15.1,13.27-33.85,19.8-56.25,19.8Zm-.12-110v81.38H421a45.5,45.5,0,0,0,32.42-12,37.51,37.51,0,0,0,0-57A45,45,0,0,0,421,28.78ZM565.78,66.68c20.83,0,37.38,5.85,49.48,17.45s18.1,27.47,18.1,47.65v96.47H606.28V206.5h-1.17c-11.73,17.85-27.23,26.83-46.63,26.83-16.67,0-30.47-5.08-41.67-15.38A49.85,49.85,0,0,1,500,179.68c0-16.15,5.85-29,17.7-38.68,11.72-9.5,27.47-14.32,47.12-14.32,16.8,0,30.6,3.25,41.4,9.62v-6.77a34.48,34.48,0,0,0-11.6-26A39.56,39.56,0,0,0,567.28,92.8q-23.62,0-37.5,20.7L504.91,97.35q20.51-30.67,60.8-30.72ZM529.21,180.35a23.51,23.51,0,0,0,9.37,19.15,34,34,0,0,0,22,7.68,47.45,47.45,0,0,0,45.85-46c-8.85-7.3-21.1-10.95-36.85-10.95-11.6,0-21.1,2.88-28.77,8.6s-11.6,12.9-11.6,21.48ZM136.11,0a132.31,132.31,0,0,1,91,34.77l-38.8,38A74.69,74.69,0,0,0,136.11,52.9a81.18,81.18,0,0,0-76.43,55,78.08,78.08,0,0,0,0,51.05,81.15,81.15,0,0,0,76.43,54.95c18.35,0,34.12-4.55,46.35-12.62a61.83,61.83,0,0,0,27.07-40.63H136.08V109.3H264.33a155.73,155.73,0,0,1,2.35,27.08c0,40.62-14.85,75-40.5,98.17-22.52,20.33-53.37,32.15-90.1,32.15A136.27,136.27,0,0,1,14.46,193.25a131.3,131.3,0,0,1,0-119.8A136.23,136.23,0,0,1,135.93,0Z"/></g></g></svg>