<svg xmlns="http://www.w3.org/2000/svg" viewBox="0 0 156.11 26.27"><defs><style>.cls-1{fill:#86bf2d;}.cls-2{fill:#1b1b1b;}</style></defs><title>p24</title><g id="Слой_2" data-name="Слой 2"><g id="Шар_1" data-name="Шар 1"><path class="cls-1" d="M29.59,22.67H25.74V9.07H39.6v13.6H35.75v-11H29.59Z"/><path class="cls-1" d="M44.84,17.71c0-2.75,1.71-3.3,2.78-3.3s2.75.55,2.75,3.3c0,1.72-.72,3.35-2.75,3.35S44.84,19.43,44.84,17.71ZM41.46,12.8V26.27H45V21.66A5.2,5.2,0,0,0,48.6,23c3.38,0,5.46-2.16,5.46-5.29S52,12.43,48.67,12.43A5.17,5.17,0,0,0,44.84,14h-.07l0-1.18Z"/><path class="cls-1" d="M62.85,21.49a5.38,5.38,0,0,1-4,1.55c-3.82,0-4-2.88-4-4.06V12.8h3.54v5.71c0,2,.68,2.55,2,2.55a2.39,2.39,0,0,0,2.4-2.72V12.8h3.54v9.87H62.85Z"/><path class="cls-1" d="M71.48,14.78h1.91c1,0,1.86.16,1.86,1s-1.35.92-1.93.92H71.48Zm-3.55-2v9.87h7c2.57,0,4.34-.5,4.34-2.53,0-1.55-.86-2.23-2.82-2.58V17.5a2.46,2.46,0,0,0,2.4-2.31c0-2.39-2.8-2.39-3.89-2.39Zm3.55,5.71h2.17c1.67,0,2,.51,2,1.17,0,.43-.23,1-2,1H71.48Z"/><path class="cls-1" d="M87.89,18.59a2.44,2.44,0,0,1-2.58,2.47c-.66,0-1.82-.22-1.82-1.15,0-1.11,1.33-1.32,2.07-1.42A7.23,7.23,0,0,0,87.89,18ZM83.79,16c0-1.46,1.54-1.58,2.17-1.58.39,0,1.86,0,1.91,1.3V16c-.07,1-1,.77-3.61,1.1-2.15.29-4.41.84-4.41,3.09C79.85,21,80.2,23,84,23a5.58,5.58,0,0,0,4-1.34H88l.3,1H92V22.5c-.67-.14-.72-.8-.7-1.87l.07-4.51c0-1.14-.09-3.69-5.43-3.69-1.28,0-5.41.12-5.57,3.56Z"/><path class="cls-1" d="M91.81,14.78v-2h11.38v2H99.27v7.89H95.73V14.78Z"/><path class="cls-1" d="M107.72,16.76h3.19c.94,0,2.8.1,2.8,1.73,0,1.29-1.35,1.54-2.87,1.54h-3.12Zm0-5.05h8.83V9.07H103.87v13.6h7.79c3.78,0,6.2-1.32,6.2-4.1,0-4.35-4.85-4.45-6.2-4.45h-3.94Z"/><path class="cls-1" d="M126.58,18.59A2.44,2.44,0,0,1,124,21.06c-.66,0-1.82-.22-1.82-1.15,0-1.11,1.32-1.32,2.07-1.42a7.23,7.23,0,0,0,2.33-.52Zm-4.1-2.6c0-1.46,1.54-1.58,2.17-1.58.39,0,1.86,0,1.91,1.3V16c-.07,1-1,.77-3.62,1.1-2.14.29-4.4.84-4.4,3.09,0,.82.35,2.86,4.12,2.86a5.59,5.59,0,0,0,4-1.34h.07l.3,1h3.73V22.5c-.67-.14-.72-.8-.69-1.87l.06-4.51c0-1.14-.09-3.69-5.43-3.69-1.28,0-5.41.12-5.57,3.56Z"/><path class="cls-1" d="M135.16,22.67h-3.54V12.8h3.54v3.71h4.27V12.8H143v9.87h-3.55V18.49h-4.27Z"/><path class="cls-1" d="M151.93,12.8h3.94L151,17.42l5.11,5.25H152l-3.82-4.31h-.07v4.31h-3.54V12.8h3.54v4h.07Z"/><rect class="cls-2" y="13.83" width="8.88" height="8.88"/><path class="cls-1" d="M0,0V11.05H2.36c6.18,0,9.31,3.13,9.31,9.31v2.35h11V0ZM18,4.69V18H16.21C15.43,11.43,11.29,7.29,4.7,6.51V4.69Z"/></g></g></svg>