<?xml version="1.0" encoding="utf-8"?><!-- Uploaded to: SVG Repo, www.svgrepo.com, Generator: SVG Repo Mixer Tools -->
<svg width="800px" height="800px" viewBox="-0.5 0 25 25" fill="none" xmlns="http://www.w3.org/2000/svg">
<path d="M9.18133 5.98779H21.0089C21.3336 5.98779 21.5698 6.29284 21.4812 6.60771L20.1135 11.8425C20.0544 12.059 19.8576 12.2066 19.6412 12.2066H9.05341C8.48269 12.2066 8.01038 12.6691 8.01038 13.2497C8.01038 13.8204 8.47285 14.2927 9.05341 14.2927H20.1528" stroke="#0F0F0F" stroke-miterlimit="10" stroke-linecap="round" stroke-linejoin="round"/>
<path d="M8.02019 10.1993L6.98701 6.35187C6.92797 6.13539 6.73116 5.98779 6.51468 5.98779H3.52336C2.96249 5.98779 2.5 6.44042 2.5 7.01114C2.5 7.57202 2.95265 8.0345 3.52336 8.0345H5.95383" stroke="#0F0F0F" stroke-miterlimit="10" stroke-linecap="round" stroke-linejoin="round"/>
<path d="M10.2477 19.0122C10.851 19.0122 11.34 18.5232 11.34 17.9199C11.34 17.3167 10.851 16.8277 10.2477 16.8277C9.64451 16.8277 9.15552 17.3167 9.15552 17.9199C9.15552 18.5232 9.64451 19.0122 10.2477 19.0122Z" fill="#0F0F0F"/>
<path d="M17.3521 19.0122C17.9553 19.0122 18.4444 18.5232 18.4444 17.9199C18.4444 17.3167 17.9553 16.8277 17.3521 16.8277C16.7489 16.8277 16.2599 17.3167 16.2599 17.9199C16.2599 18.5232 16.7489 19.0122 17.3521 19.0122Z" fill="#0F0F0F"/>
</svg>