<?xml version="1.0" encoding="utf-8"?><!-- Uploaded to: SVG Repo, www.svgrepo.com, Generator: SVG Repo Mixer Tools -->
<svg width="800px" height="800px" viewBox="-0.5 0 25 25" fill="none" xmlns="http://www.w3.org/2000/svg">
<path d="M10 11H3C2.72 11 2.5 10.78 2.5 10.5V3.5C2.5 3.22 2.72 3 3 3H10C10.28 3 10.5 3.22 10.5 3.5V10.5C10.5 10.78 10.28 11 10 11Z" stroke="#0F0F0F" stroke-miterlimit="10" stroke-linecap="round" stroke-linejoin="round"/>
<path d="M21 11H14C13.72 11 13.5 10.78 13.5 10.5V3.5C13.5 3.22 13.72 3 14 3H21C21.28 3 21.5 3.22 21.5 3.5V10.5C21.5 10.78 21.28 11 21 11Z" stroke="#0F0F0F" stroke-miterlimit="10" stroke-linecap="round" stroke-linejoin="round"/>
<path d="M21 22H14C13.72 22 13.5 21.78 13.5 21.5V14.5C13.5 14.22 13.72 14 14 14H21C21.28 14 21.5 14.22 21.5 14.5V21.5C21.5 21.78 21.28 22 21 22Z" stroke="#0F0F0F" stroke-miterlimit="10" stroke-linecap="round" stroke-linejoin="round"/>
<path d="M10 22H3C2.72 22 2.5 21.78 2.5 21.5V14.5C2.5 14.22 2.72 14 3 14H10C10.28 14 10.5 14.22 10.5 14.5V21.5C10.5 21.78 10.28 22 10 22Z" stroke="#0F0F0F" stroke-miterlimit="10" stroke-linecap="round" stroke-linejoin="round"/>
</svg>