<?xml version="1.0"?>
<svg xmlns="http://www.w3.org/2000/svg" viewBox="0 0 254.64 36.33" width="360" height="51"><defs><style>g{fill:#fff}.cls-1{fill-rule:evenodd;}</style></defs><title>mono</title><g id="&#x421;&#x43B;&#x43E;&#x439;_2" data-name="&#x421;&#x43B;&#x43E;&#x439; 2"><g id="&#x421;&#x43B;&#x43E;&#x439;_1-2" data-name="&#x421;&#x43B;&#x43E;&#x439; 1"><g id="&#x421;&#x43B;&#x43E;&#x439;_1-3" data-name="&#x421;&#x43B;&#x43E;&#x439;_1"><g id="_1584786243392" data-name=" 1584786243392"><path class="cls-1" d="M38.9,35.69V17c0-5.3-2.84-7.82-7.6-7.82a11,11,0,0,0-8.88,4.71c-1-2.94-3.37-4.71-7.17-4.71a11.27,11.27,0,0,0-8.45,4V9.85H0V35.69H6.8V18.3a6.93,6.93,0,0,1,5.35-3.05C14.93,15.25,16,17,16,19.37V35.69h6.85V18.25a6.86,6.86,0,0,1,5.35-3c2.78,0,3.85,1.71,3.85,4.12V35.69Zm18.67.64c-8.5,0-13.64-6.21-13.64-13.59S49.07,9.2,57.57,9.2s13.7,6.21,13.7,13.54S66.14,36.33,57.57,36.33Zm0-6c4.23,0,6.64-3.48,6.64-7.55s-2.41-7.49-6.64-7.49S51,18.73,51,22.74,53.35,30.29,57.57,30.29Zm43,5.4V17.44c0-5-2.73-8.24-8.4-8.24a11.83,11.83,0,0,0-9,4V9.85H76.3V35.69h6.8V18.3A7.36,7.36,0,0,1,89,15.25c2.89,0,4.77,1.23,4.77,4.82V35.69Zm18.73.64c-8.51,0-13.65-6.21-13.65-13.59S110.76,9.2,119.27,9.2,133,15.41,133,22.74s-5.14,13.59-13.7,13.59Zm0-6c4.23,0,6.63-3.48,6.63-7.55s-2.4-7.49-6.63-7.49-6.58,3.48-6.58,7.49S115,30.29,119.27,30.29Zm25.52-2.89a7.6,7.6,0,0,0,5.83,2.89c4,0,6.59-3,6.59-7.5s-2.63-7.54-6.59-7.54a7.49,7.49,0,0,0-5.83,3Zm0,8.29H138V0h6.79V13.16a10,10,0,0,1,8-4c6.59,0,11.46,5.14,11.46,13.59,0,8.62-4.93,13.54-11.46,13.54a10,10,0,0,1-8-4Zm46.88,0h-6.8V33a10.7,10.7,0,0,1-8.19,3.32c-4.12,0-9-2.78-9-8.56,0-6.05,4.87-8.35,9-8.35,3.43,0,6.48,1.13,8.19,3.16V19.1c0-2.62-2.25-4.33-5.67-4.33a10.92,10.92,0,0,0-7.55,3.05l-2.57-4.55a17,17,0,0,1,11.3-4.07c5.88,0,11.29,2.36,11.29,9.8V35.69Zm-12.26-4a6.78,6.78,0,0,0,5.46-2.25V26.27A6.78,6.78,0,0,0,179.41,24c-2.67,0-4.87,1.39-4.87,3.9s2.2,3.8,4.87,3.8Zm43.24,4V17.44c0-5-2.73-8.24-8.4-8.24a11.85,11.85,0,0,0-9.05,4V9.85h-6.79V35.69h6.79V18.3a7.38,7.38,0,0,1,5.89-3.05c2.89,0,4.76,1.23,4.76,4.82V35.69Zm32,0L244.1,21.56,254.32,9.85H246l-9.8,11.5V0h-6.79V35.69h6.79V29.05l3.11-3.31,6.85,10Z"/></g></g></g></g></svg>
