<svg xmlns="http://www.w3.org/2000/svg" viewBox="0 0 800 798.4"><defs><style>.cls-1{fill:#138ab1;}.cls-2{fill:#0cade2;}</style></defs><g id="Слой_2" data-name="Слой 2"><g id="Слой_1-2" data-name="Слой 1"><path class="cls-1" d="M527.05,20.61c21.75,86.51,31.72,181.65,30.78,278.79a1354.55,1354.55,0,0,1-42.66,323.36c-15.73,60.7-35.66,119.11-59.56,173.4C650.2,769.09,800,602,800,400,800,223.5,685.68,73.71,527.05,20.61Z"/><path class="cls-2" d="M187,481.61c70.45-45.56,130.69-115.42,171.84-199.29A569.8,569.8,0,0,0,416.19.33Q408.14,0,400,0C179.09,0,0,179.09,0,400A399,399,0,0,0,24.52,538.18C81.72,534.07,137,514,187,481.61Z"/><path class="cls-1" d="M451.57,580.88a1097.34,1097.34,0,0,0,34.54-261.81q.28-29.9-1.14-59.39a732.75,732.75,0,0,1-33.89,81.1C397.89,449.21,320,539.53,228.93,598.43c-42.21,27.29-87.26,47.83-134,60.29A399.21,399.21,0,0,0,364,798.4C401.51,734.9,431,660.32,451.57,580.88Z"/></g></g></svg>