<!-- Uploaded to: SVG Repo, www.svgrepo.com, Transformed by: SVG Repo Mixer Tools -->
<svg version="1.1" id="Uploaded to svgrepo.com" xmlns="http://www.w3.org/2000/svg" xmlns:xlink="http://www.w3.org/1999/xlink" 
	 width="800px" height="800px" viewBox="0 0 32 32" xml:space="preserve">
<style type="text/css">
	.feather_een{fill:#0B1719;}
</style>
<path class="feather_een" d="M29.898,16h-0.454L25.55,8.99C25.802,8.964,26,8.759,26,8.5C26,8.224,25.776,8,25.5,8h-9V7.929
	C17.361,7.706,18,6.931,18,6c0-1.105-0.895-2-2-2s-2,0.895-2,2c0,0.931,0.639,1.706,1.5,1.929V8h-9C6.224,8,6,8.224,6,8.5
	c0,0.259,0.198,0.464,0.45,0.49L2.556,16H2.102c-0.612,0-1.108,0.551-0.991,1.152C1.648,19.914,4.08,22,7,22s5.352-2.086,5.89-4.848
	C13.006,16.551,12.511,16,11.898,16h-0.454L7.556,9h7.394l-0.9,18H10.5c-0.276,0-0.5,0.224-0.5,0.5s0.224,0.5,0.5,0.5h11
	c0.276,0,0.5-0.224,0.5-0.5S21.776,27,21.5,27h-3.55l-0.9-18h7.394l-3.889,7h-0.454c-0.612,0-1.108,0.551-0.991,1.152
	C19.648,19.914,22.08,22,25,22s5.352-2.086,5.89-4.848C31.006,16.551,30.511,16,29.898,16z M11.897,17C11.426,19.32,9.375,21,7,21
	c-2.389,0-4.453-1.699-4.898-4H11.897z M10.3,16H3.7L7,10.059L10.3,16z M15,6c0-0.551,0.449-1,1-1s1,0.449,1,1s-0.449,1-1,1
	S15,6.551,15,6z M15.051,27l0.9-18h0.098l0.9,18H15.051z M25,10.059L28.3,16H21.7L25,10.059z M25,21c-2.389,0-4.453-1.699-4.898-4
	h9.795C29.426,19.32,27.375,21,25,21z"/>
</svg>