<?xml version="1.0" encoding="utf-8"?>
<!-- Uploaded to: SVG Repo, www.svgrepo.com, Generator: SVG Repo Mixer Tools -->
<svg fill="#000000" width="800px" height="800px" viewBox="0 0 32 32" version="1.1" xmlns="http://www.w3.org/2000/svg">
<title>credit-card</title>
<path d="M28 5.25h-24c-1.518 0.002-2.748 1.232-2.75 2.75v16c0.002 1.518 1.232 2.748 2.75 2.75h24c1.518-0.002 2.748-1.232 2.75-2.75v-16c-0.002-1.518-1.232-2.748-2.75-2.75h-0zM2.75 10.75h26.5v2.5h-26.5zM4 6.75h24c0.69 0.001 1.249 0.56 1.25 1.25v1.25h-26.5v-1.25c0.001-0.69 0.56-1.249 1.25-1.25h0zM28 25.25h-24c-0.69-0.001-1.249-0.56-1.25-1.25v-9.25h26.5v9.25c-0.001 0.69-0.56 1.249-1.25 1.25h-0zM10 21.25h-4c-0.414 0-0.75 0.336-0.75 0.75s0.336 0.75 0.75 0.75v0h4c0.414 0 0.75-0.336 0.75-0.75s-0.336-0.75-0.75-0.75v0zM20 21.25h-6c-0.414 0-0.75 0.336-0.75 0.75s0.336 0.75 0.75 0.75v0h6c0.414 0 0.75-0.336 0.75-0.75s-0.336-0.75-0.75-0.75v0z"></path>
</svg>