<?xml version="1.0"?>
<svg xmlns="http://www.w3.org/2000/svg" viewBox="0 0 76.03 75" width="100" height="100"><defs><style>.cls-1{fill:#ed1c24;fill-rule:evenodd;}</style></defs><title>np</title><g id="&#x421;&#x43B;&#x43E;&#x439;_2" data-name="&#x421;&#x43B;&#x43E;&#x439; 2"><g id="svg4154"><g id="layer1"><g id="g4203"><path id="path3461" class="cls-1" d="M60.92,22.2c.23-.07.54.08.84.47L75.43,36a1.69,1.69,0,0,1,0,2.59L61.76,52.12c-.3.4-.61.49-.84.37s-.37-.47-.37-1V23.07C60.55,22.58,60.69,22.28,60.92,22.2Z"/><path id="path3463" class="cls-1" d="M37.53,0h1l.93.39L53.51,14.31c.6.8.4,1.4-.61,1.4H47.07a1.79,1.79,0,0,0-1.81,1.8V27.84a1.86,1.86,0,0,1-2,1.8H33a1.8,1.8,0,0,1-1.81-1.8V17.51a1.8,1.8,0,0,0-1.82-1.8H23.13c-1,0-1.21-.6-.6-1.4L36.61.39Z"/><path id="path3465" class="cls-1" d="M15.48,21.9c.26.12.42.47.42,1v29c0,.5-.16.8-.42.9s-.59,0-1-.3L.6,38.59A1.69,1.69,0,0,1,.6,36L14.48,22.28C14.89,21.88,15.24,21.78,15.48,21.9Z"/><path id="path3467" class="cls-1" d="M33,44.76H43.24a1.85,1.85,0,0,1,2,1.79V57.49a1.84,1.84,0,0,0,1.81,2H52.5c1,0,1.41.59.61,1.19L39.43,74.4a2,2,0,0,1-2.82,0L22.94,60.67c-.81-.6-.41-1.19.59-1.19h5.83a1.84,1.84,0,0,0,1.82-2V46.55A1.79,1.79,0,0,1,33,44.76Z"/></g></g></g></g></svg>
