<?xml version="1.0" encoding="utf-8"?><!-- Uploaded to: SVG Repo, www.svgrepo.com, Generator: SVG Repo Mixer Tools -->
<svg fill="#000000" width="800px" height="800px" viewBox="0 0 1024 1024" xmlns="http://www.w3.org/2000/svg"><path d="M829.44 911.36c45.245 0 81.92-36.675 81.92-81.92V194.56c0-45.245-36.675-81.92-81.92-81.92H194.56c-45.245 0-81.92 36.675-81.92 81.92v634.88c0 45.245 36.675 81.92 81.92 81.92h634.88zm0 40.96H194.56c-67.866 0-122.88-55.014-122.88-122.88V194.56c0-67.866 55.014-122.88 122.88-122.88h634.88c67.866 0 122.88 55.014 122.88 122.88v634.88c0 67.866-55.014 122.88-122.88 122.88z"/><path d="M356.352 398.811h249.856c70.128 0 126.976 56.848 126.976 126.976v4.096c0 70.128-56.848 126.976-126.976 126.976H311.296c-11.311 0-20.48 9.169-20.48 20.48s9.169 20.48 20.48 20.48h294.912c92.75 0 167.936-75.186 167.936-167.936v-4.096c0-92.75-75.186-167.936-167.936-167.936H356.352c-11.311 0-20.48 9.169-20.48 20.48s9.169 20.48 20.48 20.48z"/><path d="M372.792 291.219l-70.963 70.963c-7.998 7.998-7.998 20.965 0 28.963s20.965 7.998 28.963 0l70.963-70.963c7.998-7.998 7.998-20.965 0-28.963s-20.965-7.998-28.963 0z"/><path d="M400.018 435.165l-70.963-70.963c-7.998-7.998-20.965-7.998-28.963 0s-7.998 20.965 0 28.963l70.963 70.963c7.998 7.998 20.965 7.998 28.963 0s7.998-20.965 0-28.963z"/></svg>