<?xml version="1.0" encoding="utf-8"?><!-- Uploaded to: SVG Repo, www.svgrepo.com, Generator: SVG Repo Mixer Tools -->
<svg version="1.1" id="designs" xmlns="http://www.w3.org/2000/svg" xmlns:xlink="http://www.w3.org/1999/xlink" 
	 width="800px" height="800px" viewBox="0 0 32 32" xml:space="preserve">
<style type="text/css">
	.sketchy_een{fill:#111918;}
</style>
<path class="sketchy_een" d="M8.594,30c-0.219,0-0.439-0.005-0.658-0.011c-0.195-0.005-0.38-0.079-0.534-0.216
	c-0.221-0.11-0.364-0.278-0.414-0.481c-0.322-1.317-0.706-2.593-1.004-3.558l-0.119-0.381c-0.195-0.624-0.39-1.249-0.557-1.882
	c-0.166-0.623-0.321-1.248-0.476-1.873l-0.112-0.452c-0.095-0.38-0.198-0.757-0.301-1.133c-0.107-0.389-0.214-0.778-0.311-1.17
	l-0.116-0.459c-0.175-0.691-0.357-1.404-0.467-2.121c-0.035-0.22-0.036-0.406,0.076-0.597c0.086-0.442,0.418-0.741,0.808-0.749
	l0.374-0.003c0.102-0.229,0.152-0.402,0.195-0.574c0.166-0.671,0.315-1.348,0.465-2.024c0.207-0.935,0.42-1.903,0.676-2.843
	C6.184,9.232,6.256,8.991,6.328,8.75l0.137-0.47C6.556,7.963,6.64,7.643,6.724,7.324l0.191-0.711
	c0.073-0.266,0.147-0.531,0.208-0.801c0.064-0.281,0.12-0.564,0.176-0.847l0.103-0.511c0.045-0.213,0.195-0.349,0.312-0.424
	c0.169-0.182,0.378-0.278,0.6-0.28l0.794,0.005c0.282,0,0.565-0.006,0.845-0.029c0.15-0.038,0.222-0.048,0.294-0.048l0.054,0.004
	l0.041-0.046L10.336,3.13c0-0.183,0.07-0.364,0.205-0.522c0.053-0.17,0.116-0.285,0.201-0.37C10.857,2.123,11.065,2,11.254,2
	c1.707,0.209,3.347,0.235,4.591,0.235l1.271-0.006c0.589-0.004,1.179-0.007,1.768-0.016c0.639-0.008,1.266-0.02,1.902-0.073
	c0.115-0.045,0.217-0.067,0.319-0.067c0.042,0,0.084,0.012,0.128,0.025l0.104,0.025l0.109,0.034
	c0.294,0.091,0.498,0.291,0.573,0.565c0.063,0.227,0.016,0.483-0.127,0.701l-0.017,0.301l0.232,0.041
	c0.266-0.014,0.532-0.028,0.799-0.028c0.154,0,0.307,0.004,0.458,0.015c0.259,0.016,0.493,0.131,0.661,0.327
	c0.271,0.109,0.461,0.311,0.528,0.555c0.115,0.426,0.226,0.851,0.328,1.281c0.21,0.873,0.412,1.748,0.614,2.624
	c0.17,0.737,0.339,1.473,0.514,2.209l0.062,0.262c0.163,0.694,0.324,1.387,0.503,2.077l0.072,0.27
	c0.071,0.268,0.141,0.533,0.192,0.805c0.062,0.323,0.111,0.584,0.189,0.835l0.154,0.035h0.125c0.116,0,0.232-0.001,0.348-0.009
	c0.053-0.01,0.1-0.015,0.147-0.015c0.061,0,0.123,0.008,0.185,0.025c0.117,0.032,0.221,0.092,0.308,0.179
	c0.128,0.129,0.203,0.308,0.203,0.49c0,0.184-0.069,0.35-0.199,0.479c-0.014,0.134-0.013,0.177-0.023,0.221
	c-0.13,0.593-0.309,1.183-0.482,1.753c-0.174,0.579-0.356,1.178-0.488,1.782c-0.175,0.801-0.353,1.597-0.542,2.395l-0.275,1.209
	c-0.096,0.416-0.211,0.823-0.334,1.23L26.056,25.1c-0.083,0.288-0.167,0.575-0.262,0.86c-0.067,0.204-0.138,0.405-0.21,0.607
	c-0.066,0.181-0.129,0.363-0.191,0.545c-0.135,0.408-0.248,0.822-0.361,1.238c-0.078,0.288-0.157,0.576-0.243,0.861
	c-0.027,0.233-0.138,0.421-0.322,0.553c-0.058,0.047-0.105,0.078-0.154,0.102c-0.119,0.046-0.196,0.065-0.274,0.07
	c-0.217,0.024-0.382,0.027-0.547,0.027l-2.569-0.022c-0.432,0-0.864,0.008-1.298,0.016l-0.174,0.003
	c-0.358,0.005-0.715,0.011-1.072,0.011l-0.632-0.003c-0.337,0-2.235,0.014-2.235,0.014c-0.405-0.001-0.816-0.009-1.221-0.044
	c-0.313-0.027-0.624-0.03-0.936-0.033l-0.296-0.003c-0.316-0.006-0.631-0.008-0.947-0.008c-0.509,0-1.017,0.006-1.525,0.017
	c-0.306,0.008-0.611,0.027-0.917,0.046l-0.42,0.025C9.031,29.995,8.813,30,8.594,30z M8.639,26.515
	c-0.271,0-0.542,0.006-0.813,0.014l-0.066,0.002l0.037,0.123c0.092,0.314,0.153,0.54,0.214,0.766l0.126,0.463
	c0.031,0.113,0.069,0.225,0.106,0.338l0.046,0.14c0.409,0.05,0.771,0.065,1.134,0.065l1.191-0.02c0,0-0.146-0.615-0.211-0.873
	l-0.222-0.918l-0.242-0.049l-0.227-0.014C9.354,26.525,8.997,26.515,8.639,26.515z M16.784,26.617
	c-0.435,0.006-0.869,0.023-1.304,0.04l-0.362,0.014c0.029,0.551,0.12,1.079,0.254,1.596l0.007,0.041l0.043,0.071
	c0.372,0.005,1.576,0.006,1.576,0.006c0.059-0.534,0.058-0.994,0.057-1.454v-0.319L16.784,26.617z M11.861,26.739
	c0,0,0.166,0.702,0.215,0.896c0.054,0.219,0.108,0.435,0.157,0.654l0.006,0.044l0.046,0.044l0.976-0.014l0.558,0.003l0.045-0.056
	c-0.086-0.59-0.159-1.082-0.227-1.575l-0.361-0.041l-0.545,0.003c-0.217,0-0.434-0.002-0.651-0.009l-0.065-0.002L11.861,26.739z
	 M20.236,26.551c-0.553,0.005-1.105,0.011-1.656,0.024l-0.051,0.47c-0.002,0.42-0.004,0.842-0.001,1.263l0.484,0.063l0.994-0.011
	l0.066-0.217c0.025-0.254,0.05-0.508,0.087-0.761c0.027-0.187,0.127-0.775,0.127-0.775l0.01-0.059L20.236,26.551z M21.747,26.795
	c-0.055,0.29-0.11,0.581-0.155,0.873l-0.064,0.609l0.288,0.052c0,0,1.413-0.022,1.658-0.022c0.149-0.321,0.242-0.61,0.335-0.9
	c0.07-0.221,0.238-0.722,0.238-0.722l-0.232-0.015c-0.308-0.007-0.614-0.015-0.92-0.032l-1.106-0.065L21.747,26.795z M22.356,23.595
	l-0.08,0.213l-0.172,0.935l-0.078,0.459l0.648,0.086c0.364,0.017,0.726,0.019,1.09,0.021l0.649-0.002
	c0.246-0.568,0.394-1.105,0.522-1.646l-0.406-0.071c-0.207-0.006-0.415-0.008-0.623-0.008L22.356,23.595z M10.999,23.423
	c0.161,0.585,0.319,1.174,0.475,1.763l0.099,0.04c0.518,0.026,1.037,0.033,1.556,0.039l0.231,0.003l0.025-0.233
	c-0.075-0.522-0.15-1.044-0.249-1.563l-0.321-0.057c-0.36-0.005-0.719-0.009-1.079-0.023l-0.756-0.036L10.999,23.423z
	 M14.578,23.499c0.066,0.332,0.131,0.664,0.181,1.002l0.098,0.719l0.591,0.038l1.56-0.013c0.05-0.596,0.052-1.143,0.057-1.689
	l-0.279-0.059c-0.104-0.003-0.208-0.006-0.311-0.014c-0.567-0.042-1.137-0.043-1.706-0.045h-0.204L14.578,23.499z M20.461,25.211
	l0.076-0.041l0.258-1.427l-0.034-0.164h-0.367c-0.608,0-1.213-0.001-1.819-0.01l-0.051-0.001v0.051
	c-0.003,0.52,0.001,1.041,0.005,1.561c0.387,0.025,0.755,0.03,1.115,0.03c0.224,0,0.446-0.003,0.668-0.004L20.461,25.211z
	 M6.915,23.623c0.074,0.288,0.148,0.576,0.235,0.86l0.149,0.5l0.41,0.031c0.579,0,1.179,0.024,1.783,0.071l0.245,0.021L9.713,24.74
	c-0.06-0.236-0.121-0.472-0.176-0.71l-0.159-0.715c-0.865-0.078-1.683-0.085-2.502-0.088L6.915,23.623z M18.537,21.035
	c-0.014,0.344-0.016,0.688-0.016,1.033v0.048l0.341,0.006c0.498,0,0.995-0.005,1.492-0.011l0.663-0.007l0.107-0.39l0.06-0.366
	c0.053-0.361,0.116-0.721,0.178-1.082l0.03-0.181l-1.088-0.072l-0.829-0.011c-0.23-0.002-0.46-0.009-0.69-0.017l-0.203-0.007
	L18.537,21.035z M23.61,22.059c0.305,0,0.61,0.004,0.913,0.019l0.762,0.031l0.407-1.866l-0.217-0.059
	c-0.116,0-0.232-0.002-0.349-0.008l-0.42-0.025c-0.222-0.015-0.446-0.028-0.669-0.034l-0.361-0.005
	c-0.252-0.002-0.504-0.005-0.754-0.017l-0.118,0.388c-0.069,0.359-0.138,0.717-0.193,1.078l-0.064,0.468l0.213,0.049
	c0.212-0.011,0.421-0.021,0.632-0.021H23.61z M14.29,21.979l0.239,0.042c0.569,0.004,1.138,0.007,1.704,0.031l0.812,0.023
	l0.058-0.332l0.008-0.376c0.012-0.305,0.018-0.61,0.024-0.915l0.009-0.458l-0.388-0.052c-0.671,0-1.342,0.01-2.013,0.029h-0.808
	C13.936,19.971,14.173,21.33,14.29,21.979z M10.602,21.899c0.362,0.053,0.677,0.067,0.993,0.076c0.301,0.01,0.601,0.014,0.902,0.017
	l0.346,0.004l0.034-0.17c-0.031-0.22-0.063-0.439-0.101-0.658l-0.205-1.19l-0.589,0.003c-0.586,0-1.172-0.006-1.757-0.016
	l-0.064-0.001L10.602,21.899z M5.906,19.844c0.172,0.576,0.308,1.118,0.445,1.66l0.045,0.179l0.095,0.028
	c0.882,0.01,1.695,0.046,2.488,0.113l0.025-0.19c0,0-0.241-1.132-0.289-1.381l-0.061-0.311l-0.172-0.048
	c-0.255-0.015-0.511-0.03-0.766-0.041c-0.591-0.025-1.18-0.074-1.77-0.122l-0.07-0.006L5.906,19.844z M25.981,16.475
	c-0.315,0.015-0.63,0.022-0.946,0.029c-0.399,0.01-0.799,0.019-1.197,0.043l-0.228,0.005c-0.145,0.549-0.249,1.056-0.353,1.564
	l-0.083,0.41c0.375,0.07,0.704,0.074,1.034,0.074c0.249,0,0.497,0.014,0.746,0.026c0.25,0.013,0.501,0.026,0.751,0.026
	c0.109,0,0.363-0.011,0.363-0.011l0.024-0.098c0.178-0.703,0.346-1.364,0.497-2.032l0.015-0.064L25.981,16.475z M18.68,16.546
	c-0.003,0.615-0.01,1.232-0.034,1.847l0.425,0.062c0.188,0.004,0.376,0.008,0.565,0.016c0.657,0.027,1.316,0.042,1.974,0.055
	c0.15-0.655,0.254-1.264,0.363-1.875l0.011-0.059h-0.124c-0.977,0-1.845-0.025-2.654-0.075L18.68,16.546z M9.613,17.185l0.244,1.242
	l0.053,0.06l2.368-0.004c-0.041-0.682-0.115-1.309-0.171-1.94l-0.004-0.046l-0.249,0.007c-0.447,0.019-0.896,0.024-1.344,0.024
	l-1.003-0.005C9.508,16.521,9.589,17.056,9.613,17.185z M14.359,16.436l-0.794,0.021c-0.008,0.668,0.038,1.282,0.109,1.895
	l0.005,0.045l0.057,0.075l0.395-0.001c0.281,0,0.562-0.001,0.842-0.009l0.387-0.011c0.585-0.017,1.17-0.033,1.756-0.038l0.033-1.918
	l-0.2-0.053l-0.117-0.002c-0.466-0.009-0.932-0.013-1.398-0.013C15.077,16.428,14.718,16.431,14.359,16.436z M6.78,16.469
	c-0.478,0-0.957,0.011-1.435,0.022l-0.159,0.004l-0.009,0.287c0.068,0.391,0.135,0.781,0.221,1.167l0.072,0.27
	c0.256,0.06,0.467,0.085,0.679,0.111l0.54,0.063c0.333,0.036,0.668,0.04,1.003,0.044l0.204,0.002
	c0.129,0.002,0.258,0.008,0.387,0.014c-0.087-0.675-0.219-1.292-0.326-1.913l-0.272-0.05c-0.223-0.009-0.446-0.018-0.67-0.02
	L6.78,16.469z M13.968,14.975c0.82,0.002,1.642,0.014,2.465,0.032l0.666,0.014c0.576,0.01,1.153,0.021,1.728,0.057
	c0.798,0.051,1.582,0.076,2.397,0.078h0.24c0.682,0,1.363-0.001,2.045-0.031l0.287-0.013c0.263-0.012,0.525-0.024,0.789-0.024
	l0.875-0.005l-0.023-0.14c-0.017-0.102-0.033-0.205-0.055-0.305c-0.063-0.298-0.139-0.593-0.216-0.886l-0.058-0.226
	c-0.083-0.319-0.158-0.638-0.231-0.957l-0.294-1.282c-0.094-0.423-0.189-0.847-0.29-1.269l-0.11-0.45
	c-0.063-0.254-0.125-0.507-0.181-0.762c-0.086-0.4-0.184-0.796-0.295-1.19c-0.143-0.514-0.595-2.093-0.595-2.093
	c-0.101-0.014-0.191-0.018-0.275-0.018c-0.096,0-0.185,0.006-0.273,0.013l-0.596,0.038l0.008,0.101l-0.012,0.218
	c0.004,0.485-0.356,0.844-0.851,0.871c-0.485,0.026-0.97,0.028-1.454,0.028c0,0-2.372,0.004-3.154,0.004l-1.915-0.012l-0.426,0.002
	c-0.421,0.002-0.84,0.016-1.259,0.049c-0.415,0.032-0.828,0.063-1.245,0.067c-0.24,0-0.46-0.098-0.63-0.274
	c-0.408-0.093-0.676-0.413-0.68-0.791l0.001-0.45l-0.095-0.043c-0.092-0.006-0.184-0.008-0.275-0.008
	c-0.148,0-0.296,0.006-0.444,0.012L8.826,5.352L8.722,5.637c-0.13,0.565-0.279,1.13-0.427,1.694L7.964,8.605
	C7.799,9.246,7.635,9.887,7.48,10.533c-0.107,0.452-0.207,0.906-0.306,1.359c-0.084,0.385-0.169,0.769-0.258,1.153
	c-0.089,0.388-0.172,0.775-0.25,1.165L6.53,14.886l0.249,0.066c0.735,0.02,1.468,0.039,2.203,0.041l1.996,0.012l1.38-0.015
	c0.472-0.008,0.945-0.015,1.418-0.015H13.968z M11.977,5.068c0.259,0.028,0.5,0.036,0.735,0.036c0.168,0,0.332-0.004,0.496-0.009
	c0.346-0.009,0.692-0.018,1.039-0.022c0.324-0.003,0.649-0.01,0.974-0.017c0.449-0.01,0.898-0.02,1.347-0.02
	c0,0,1.19,0.01,1.197,0.01c0.269,0,1.168-0.014,1.168-0.014h1.358L20.37,4.98l-0.033-0.518c-0.006-0.105-0.007-0.21-0.007-0.316
	l-0.006-0.277c0,0-0.109,0.005-0.117,0.005c-0.355,0-0.654-0.013-0.951-0.025l-0.299-0.013c-0.851-0.034-1.698-0.042-2.548-0.048
	C16,3.786,15.59,3.762,15.181,3.74c-0.4-0.023-0.801-0.045-1.201-0.048c-0.648-0.006-1.293-0.012-1.937-0.041l-0.052-0.003
	C11.991,3.647,11.983,4.611,11.977,5.068z"/>
</svg>