<svg xmlns="http://www.w3.org/2000/svg" viewBox="0 0 428.41 301.36" height="50"><path d="M639.64,440.2l115.76-60-115.76-60.4Z" transform="translate(-469.68 -233.97)" fill="#fff"></path><path d="M893.81,299s-4.19-29.53-17-42.53c-16.27-17.07-34.56-17.16-42.9-18.16C773.9,234,684,234,684,234h-.17s-89.92,0-149.9,4.32c-8.35,1-26.64,1.09-42.91,18.16-12.84,13-17,42.53-17,42.53a647.81,647.81,0,0,0-4.28,69.33v32.51A648.06,648.06,0,0,0,474,470.15s4.19,29.53,17,42.53c16.31,17.07,37.71,16.53,47.23,18.33,34.26,3.27,145.67,4.32,145.67,4.32s90-.13,150-4.49c8.38-1,26.63-1.09,42.9-18.16,12.84-13,17-42.53,17-42.53a649,649,0,0,0,4.28-69.33V368.31A647.81,647.81,0,0,0,893.81,299ZM639.64,440.2V319.82l115.76,60.4Z" transform="translate(-469.68 -233.97)" fill="#e52d27"></path></svg>