<svg xmlns="http://www.w3.org/2000/svg" viewBox="0 0 351.86 383.27"><defs><style>.cls-1{fill:#fff;}</style></defs><title>logo_white</title><g id="Слой_2" data-name="Слой 2"><g id="Слой_1-2" data-name="Слой 1"><path class="cls-1" d="M173,383.27c-3.45-2.15-7.16-4-10.31-6.51q-78-62.64-156-125.42c-8.93-7.19-8.93-17.87,0-25.09,14.17-11.42,28.36-22.82,42.83-34.46-.93-.85-1.68-1.61-2.5-2.28Q27,173.31,6.85,157.14c-9.15-7.37-9.12-18,0-25.32L165.13,4.48c7.41-6,14.19-6,21.63,0l159.14,128c8.06,6.49,7.89,17.59-.3,24.14Q325.16,173,304.79,189.49c-.76.62-1.48,1.28-2.56,2.21,5.48,4.43,10.77,8.72,16.07,13q13.84,11.13,27.72,22.24a15,15,0,0,1,.06,23.7q-79.71,64.15-159.47,128.22c-2.27,1.83-5.1,3-7.66,4.42Zm3-128.51,4.28-3.42q20.11-16.18,40.24-32.35c7.33-5.84,16.18-5.16,21.65,1.5s4.37,15.91-2.92,21.8q-26.34,21.27-52.74,42.46c-7.07,5.67-14,5.64-21.05,0L91.65,225.37c-6-4.82-12-9.62-18.06-14.49L38.9,238.81c46,37,91.43,73.56,137,110.28l137-110.29L176,128.54c-3,2.38-5.59,4.48-8.22,6.58-12,9.69-24,19.44-36.15,29.06-7.13,5.67-14.81,5.5-20.62-.21-6.89-6.78-6.15-16.62,1.88-23.1q26-21,52.17-42c7.6-6.12,14.26-6.12,21.92,0l62.06,50,29.25,23.5,34.67-27.95L176,34.21,38.89,144.49Z"/></g></g></svg>