<svg xmlns="http://www.w3.org/2000/svg" viewBox="0 0 488 488"><defs><style>.cls-1{fill:#8dd9ff;}.cls-2{fill:#fffff4;}.cls-3{fill:#bbe6ff;}.cls-4{fill:#3b87c5;}.cls-5{fill:#3c9bd4;}.cls-6{fill:#fff;}.cls-7{fill:#75c3f0;}.cls-8{fill:#5ab0e2;}</style></defs><title>logo_icon</title><g id="Слой_2" data-name="Слой 2"><g id="Слой_1-2" data-name="Слой 1"><path class="cls-1" d="M0,244C0,378.76,109.24,488,244,488S488,378.76,488,244,378.76,0,244,0,0,109.24,0,244Z"/><path class="cls-2" d="M5.61,192a243.8,243.8,0,0,0,0,104c64.13,52.88,223,90.33,409,90.33,9.32,0,18.56-.12,27.74-.31a243.74,243.74,0,0,0,0-284c-9.18-.19-18.41-.31-27.74-.31-186,0-344.87,37.45-409,90.33Z"/><path class="cls-2" d="M0,244A242.76,242.76,0,0,0,43.33,382.75c88.27,24.84,212.68,42.84,355.29,50a244,244,0,0,0,71.49-280.45C272.49,156.93,102,182.09,1.37,218.18A244.55,244.55,0,0,0,0,244Z"/><path class="cls-3" d="M167.75,137.25c-8.58,1.91-19.06,21.92-30.5,22.88s-32.41,0-38.12,7.62c-2.75,3.66-6.37,18.14-9.4,30.5H211.12l5.88-35.9C207.46,155.68,176.33,135.34,167.75,137.25Z"/><path class="cls-4" d="M0,244C0,378.76,109.24,488,244,488S488,378.76,488,244a244.62,244.62,0,0,0-4.35-45.75H4.35A244.62,244.62,0,0,0,0,244Z"/><path class="cls-5" d="M243.6,244c-90.26,0-173.06,19.6-237.93,52.24,23,105.3,113.9,185.19,224.55,191.35,4.59.15,9.15.41,13.8.41h.18c4.55,0,9-.26,13.53-.41,110.54-6.13,201.4-85.84,224.52-191C417.26,263.74,334.19,244,243.6,244Z"/><path class="cls-6" d="M180.78,87.63a22.57,22.57,0,0,0-6.85,1.16,38,38,0,0,0-62.56,0,22.51,22.51,0,0,0-6.84-1.16,22.88,22.88,0,0,0-22.88,22.88h122a22.87,22.87,0,0,0-22.87-22.88Z"/><path class="cls-6" d="M150.28,89.91A19.67,19.67,0,0,1,170,70.24a19.41,19.41,0,0,1,4.73.64,28,28,0,0,1,48.67,19Z"/><path class="cls-6" d="M244,70A16.6,16.6,0,0,1,264.8,53.8,23.89,23.89,0,0,1,306.27,70Zm134.71,67.09a16.6,16.6,0,0,1,20.8-16.22A23.88,23.88,0,0,1,441,137.12ZM183.56,48.91a11.89,11.89,0,0,1,14.91-11.63,17.11,17.11,0,0,1,29.72,11.63Z"/><path class="cls-6" d="M332,122a22.24,22.24,0,0,1,22.24-22.24,21.92,21.92,0,0,1,5.35.72,31.69,31.69,0,0,1,55,21.52Z"/><path class="cls-3" d="M388.88,198.25c0-24.15-20.78-33.47-30.5-38.12-11.54-5.52-35.59-3.82-45.75-22.88s-17.2-30.5-22.88-30.5c-10.8,0-37.49,5.08-53.37,22.88-12.92,14.47-10.17,28-30.5,38.12-6.13,3.06-22.88,7.59-22.88,30.5v38.13c0,28.59,33,48.29,45.75,53.37s28.79,129.63,45.75,129.63c16.52,0,35.58-62.28,45.75-68.63s30.5-7.52,30.5-38.12V244C371.07,223.68,388.88,247.81,388.88,198.25Z"/><path class="cls-7" d="M89.73,198.25c-1.26,5.15-2.42,9.94-3.37,13.42A21.9,21.9,0,0,0,89,229.13c9.92,15.77,31,50.23,33,60.62,7.15,37.17,22.88,41.94,30.5,61,4,9.89,24.3,3.81,30.5,0,8.74-5.38,22.88-68.62,22.88-68.62l5.24-83.88Z"/><path class="cls-1" d="M228.75,289.75c12.71,5.08,28.79,129.63,45.75,129.63,16.52,0,35.58-62.28,45.75-68.63s30.5-7.52,30.5-38.12V244c20.32-20.32,38.13,3.81,38.13-45.75H183v38.13C183,265,216,284.67,228.75,289.75Z"/><path class="cls-6" d="M167.75,137.25c-8.58,1.91-19.06,21.92-30.5,22.88s-32.41,0-38.12,7.62c-1.94,2.58-4.31,10.57-6.6,19.37,11.06.88,14.1-9.84,16.44-13.65,2.55-4.13,16.52-2.22,26.06-3.5s8.89,6,18.33,8.26,11.21-19.38,15.66-23.51,36.86,13,44.16,18.43l2.57-3.17,1.25-7.63C207.46,155.68,176.33,135.34,167.75,137.25Z"/><path class="cls-6" d="M358.38,160.13c-11.54-5.52-35.59-3.82-45.75-22.88s-17.2-30.5-22.88-30.5c-10.8,0-37.49,5.08-53.37,22.88-12.92,14.47-10.17,28-30.5,38.12-5.91,2.95-21.59,7.44-22.68,28.34,7.9-10.71,33.16-17.38,48.89-13.57,10.35,2.51,3.33,10.36,15.3,10.36,9,0,8.26-38.23,14.72-44.19,6.19-5.72,12.94-4.22,17.16,11.44,6.67,24.78,48.61,6.19,102.62,16.81C374.94,167.82,364.48,163.05,358.38,160.13ZM2.81,206.83H485.19c-.44-2.89-1-5.73-1.54-8.58H4.35C3.8,201.1,3.25,203.94,2.81,206.83Z"/><path class="cls-7" d="M314.53,277.19c0-18.14-14-21.71-14-8.23,0,7.78-11.08,14.92-18,5.06-5.65-8-7.4-31.36-7.4-42.09,0-21.29-17.31-22.42-17.31-.65,0,31.78-13.87,26.24-13.87,38.77,0,23.51,12.43,43.53,0,58.78-.19.23-.32.54-.5.79,9.53,38.13,20.08,89.76,31,89.76,16.52,0,35.58-62.28,45.75-68.63,4.17-2.61,10.06-4.37,15.55-7.62C318.34,341.22,314.53,311.68,314.53,277.19Z"/><path class="cls-8" d="M176.8,288.32c0-24,1.43-38-8.1-42.1-8.45-3.66-17.87,8-20.35-2.22-4.56-18.84-4.75-25.24-10.85-25.24s-8.35,9.44-8.35,32.87c0,35.33,3.65,40.89-5.66,44.93,7.66,31,21.88,36.36,29,54.19,4,9.89,24.3,3.81,30.5,0,5.86-3.61,14.13-33.2,19-52.33C197.61,308.81,176.8,309.48,176.8,288.32Z"/><g id="Слой_1-2-2" data-name="Слой 1-2"><path class="cls-6" d="M262.56,341a155.62,155.62,0,0,1,4.31,39,189.49,189.49,0,0,1-6,45.27,160.38,160.38,0,0,1-8.33,24.27,56,56,0,0,0,10-108.57Z"/><path class="cls-6" d="M215,405.56c9.86-6.38,18.3-16.16,24.06-27.9a79.85,79.85,0,0,0,8-39.48c-.75,0-1.51,0-2.27,0a56,56,0,0,0-52.56,75.34A48.37,48.37,0,0,0,215,405.56Z"/><path class="cls-6" d="M252,419.46a153.73,153.73,0,0,0,4.84-36.66q0-4.19-.16-8.31a102.59,102.59,0,0,1-4.75,11.35c-7.44,15.18-18.35,27.83-31.1,36.07a65.72,65.72,0,0,1-18.76,8.44,55.89,55.89,0,0,0,37.67,19.56A119,119,0,0,0,252,419.46Z"/></g></g></g></svg>