<svg xmlns="http://www.w3.org/2000/svg" viewBox="0 0 488 488"><defs><style>.cls-1{fill:#ffda9c;}.cls-2{fill:#e0b587;}.cls-3{fill:#ca9f7c;}.cls-4{fill:#a07766;}.cls-5{fill:#795552;}.cls-6{fill:#e9b668;}.cls-7{fill:#674447;}.cls-8{fill:#8c665b;}.cls-9{fill:#edc08e;}.cls-10{fill:#fff;}</style></defs><title>template_intense_icon</title><g id="Слой_2" data-name="Слой 2"><g id="Слой_1-2" data-name="Слой 1"><path class="cls-1" d="M244,0C109.46,0,0,109.46,0,244S109.46,488,244,488,488,378.54,488,244,378.54,0,244,0Z"/><path class="cls-2" d="M310.08,236.37c-12.7,0-24.46-12-41.62-12s-31.77,12-43.68,12a27.08,27.08,0,0,0-18.9,7.63h95l9.21-7.63Z"/><path class="cls-3" d="M274.5,236.37c-11.91,0-43.84-15.25-61-15.25S172,236.37,160.13,236.37,144.88,244,144.88,244H274.5Z"/><path class="cls-4" d="M396.5,160.12c-17.16-4.28-45.75-6.33-68.62,15.25C302.62,199.2,283.71,244,244,244H381.25l22.88-68.63-7.63-15.25"/><path class="cls-5" d="M396.5,160.12a96.36,96.36,0,0,0-10.11-1.93,64.62,64.62,0,0,0-35.64,17.18C325.49,199.2,306.59,244,266.88,244H381.25l22.88-68.63Z"/><path class="cls-4" d="M42.09,107.16a243.34,243.34,0,0,0-30.33,62.09l79.74,29,80.62,26.08c-63.85-38.32-49.84-103.46-130-117.17Z"/><path class="cls-5" d="M39.42,111.27A242.52,242.52,0,0,0,9.81,175.68l62.07,22.57,80.62,26.08C93.59,189,100.9,130.83,39.42,111.27Z"/><path class="cls-6" d="M244,488c134.54,0,244-109.46,244-244H0C0,378.54,109.46,488,244,488Z"/><path class="cls-1" d="M244,305c95.58,0,184.27-33.6,243-39.6.61-7.06,1-14.18,1-21.4H0c0,7.22.38,14.34,1,21.4C59.73,271.4,148.42,305,244,305Z"/><path class="cls-7" d="M362.45,457.22,244,244,125.55,457.22a243.3,243.3,0,0,0,236.9,0Z"/><path class="cls-8" d="M277.16,303.69,244,244l-33.16,59.69c10.94.81,22,1.31,33.16,1.31S266.22,304.5,277.16,303.69ZM117.71,381.25a7.62,7.62,0,0,1-7.62-7.63V297.37a7.63,7.63,0,0,1,15.25,0v76.25A7.62,7.62,0,0,1,117.71,381.25Z"/><path class="cls-8" d="M125.34,358.37H110.09A22.9,22.9,0,0,1,87.21,335.5V320.25a7.63,7.63,0,1,1,15.25,0V335.5a7.63,7.63,0,0,0,7.63,7.62h15.25A7.63,7.63,0,0,0,133,335.5V312.62a7.63,7.63,0,0,1,15.25,0V335.5A22.9,22.9,0,0,1,125.34,358.37Z"/><path class="cls-4" d="M310.08,289.75a2.82,2.82,0,0,1-2.82-2.82h0v-28.2a2.82,2.82,0,1,1,5.64,0v28.2a2.81,2.81,0,0,1-2.81,2.82Z"/><path class="cls-4" d="M312.9,281.29h-5.64a8.47,8.47,0,0,1-8.46-8.46v-5.64a2.82,2.82,0,1,1,5.64,0v5.64a2.82,2.82,0,0,0,2.82,2.82h5.64a2.82,2.82,0,0,0,2.82-2.82v-8.46a2.82,2.82,0,0,1,5.64,0v8.46A8.46,8.46,0,0,1,312.9,281.29Z"/><path class="cls-8" d="M396.5,335.5a7.62,7.62,0,0,0-7.62,7.62v15.25a7.64,7.64,0,0,1-7.63,7.63V312.62a7.63,7.63,0,0,0-15.25,0v38.13a7.63,7.63,0,0,1-7.62-7.63V335.5a7.63,7.63,0,1,0-15.25,0v7.62A22.9,22.9,0,0,0,366,366v15.25a7.63,7.63,0,0,0,15.25,0,22.91,22.91,0,0,0,22.88-22.88V343.12A7.63,7.63,0,0,0,396.5,335.5Z"/><path class="cls-9" d="M120.36,94a14.12,14.12,0,0,1,17.7-13.81A20.33,20.33,0,0,1,173.35,94Zm174.35,13.08a18.2,18.2,0,0,1,22.8-17.79A26.19,26.19,0,0,1,363,107.09Z"/><path class="cls-9" d="M339.94,97.89a12.41,12.41,0,0,1,12.4-12.41,12.76,12.76,0,0,1,3,.4,17.68,17.68,0,0,1,30.69,12Z"/><path class="cls-8" d="M30.5,152.5H17.87A242.43,242.43,0,0,0,0,244H228.75C167.27,244,100.08,152.5,30.5,152.5ZM289.75,244H488a242.53,242.53,0,0,0-37.17-129.23C362.85,148.86,382.57,244,289.75,244Z"/><path class="cls-6" d="M266.08,486.88,244,244l7.39,243.76q7.39-.22,14.69-.88Zm-29.47.88L244,244,221.92,486.88Q229.21,487.54,236.61,487.76Z"/><path class="cls-1" d="M244,244,125.55,457.22c4.06,2.26,8.21,4.39,12.41,6.43Zm0,0L362.45,457.22c-4.06,2.26-8.21,4.39-12.41,6.43Z"/><path class="cls-7" d="M16.5,156A242.72,242.72,0,0,0,0,244H190.63C136.29,244,77.48,172.55,16.5,156Z"/><path class="cls-4" d="M177,269.88a3.07,3.07,0,0,0-3.08,3.08h0v6.17a3.08,3.08,0,0,1-3.09,3.08V260.63a3.08,3.08,0,1,0-6.16,0V276a3.08,3.08,0,0,1-3.09-3.08v-3.08a3.08,3.08,0,1,0-6.16,0V273a9.26,9.26,0,0,0,9.25,9.25v6.17a3.08,3.08,0,1,0,6.16,0,9.26,9.26,0,0,0,9.25-9.25V273A3.08,3.08,0,0,0,177,269.88Z"/><path class="cls-8" d="M440.52,284.9a4.5,4.5,0,0,0-4.51,4.5h0v9a4.51,4.51,0,0,1-4.5,4.51V271.38a4.51,4.51,0,1,0-9,0v22.53A4.51,4.51,0,0,1,418,289.4v-4.5a4.5,4.5,0,0,0-4.5-4.51h0a4.51,4.51,0,0,0-4.5,4.51h0v4.5a13.53,13.53,0,0,0,13.52,13.52v9a4.51,4.51,0,1,0,9,0A13.53,13.53,0,0,0,445,298.41v-9a4.49,4.49,0,0,0-4.5-4.5Z"/><path class="cls-8" d="M66.89,284.9a4.49,4.49,0,0,0-4.5,4.5h0v9a4.52,4.52,0,0,1-4.51,4.51V271.38a4.51,4.51,0,1,0-9,0v22.53a4.5,4.5,0,0,1-4.5-4.51v-4.5a4.51,4.51,0,0,0-4.51-4.51h0a4.51,4.51,0,0,0-4.51,4.51h0v4.5a13.54,13.54,0,0,0,13.52,13.52v9a4.51,4.51,0,1,0,9,0A13.53,13.53,0,0,0,71.4,298.41v-9a4.5,4.5,0,0,0-4.51-4.5Z"/><path class="cls-7" d="M312.63,244H488a242.43,242.43,0,0,0-32.08-120.7C388.08,162.44,398.58,244,312.63,244Z"/><g id="Слой_1-2-2" data-name="Слой 1-2"><path class="cls-10" d="M262.8,61.28a155.62,155.62,0,0,1,4.31,39,189.9,189.9,0,0,1-6,45.26,161.63,161.63,0,0,1-8.34,24.28,56,56,0,0,0,10-108.57Z"/><path class="cls-10" d="M215.2,125.81c9.86-6.37,18.29-16.15,24.05-27.9a79.68,79.68,0,0,0,8-39.47c-.75,0-1.51,0-2.27,0a56,56,0,0,0-52.56,75.34A48.15,48.15,0,0,0,215.2,125.81Z"/><path class="cls-10" d="M252.23,139.71a153.65,153.65,0,0,0,4.84-36.65q0-4.19-.16-8.32a101.64,101.64,0,0,1-4.75,11.36c-7.44,15.18-18.35,27.82-31.09,36.07a66.12,66.12,0,0,1-18.76,8.44A55.85,55.85,0,0,0,240,170.16,118.61,118.61,0,0,0,252.23,139.71Z"/></g></g></g></svg>