<svg xmlns="http://www.w3.org/2000/svg" viewBox="0 0 488 485.51"><defs><style>.cls-1{fill:#fff;}.cls-2{fill:#fffff4;}.cls-3{fill:#ff4f70;}.cls-4{fill:#b580d8;}.cls-5{fill:#ebe1f9;}.cls-6{fill:#ffefa1;}.cls-7{fill:#b26483;}.cls-8{fill:#6597ff;}.cls-9{fill:#ffc56e;}.cls-10{fill:#44beff;}</style></defs><title>template_techmax_icon</title><g id="Слой_2" data-name="Слой 2"><g id="Слой_1-2" data-name="Слой 1"><g id="Слой_1-2-2" data-name="Слой 1-2"><path class="cls-1" d="M262.79,338.49a155.16,155.16,0,0,1,4.31,39,190.05,190.05,0,0,1-6,45.27,159.68,159.68,0,0,1-8.34,24.27,56,56,0,0,0,10-108.57Z"/><path class="cls-1" d="M215.19,403c9.86-6.38,18.29-16.16,24.05-27.9a79.74,79.74,0,0,0,8-39.48c-.75,0-1.51,0-2.26,0A56,56,0,0,0,192.44,411,48.37,48.37,0,0,0,215.19,403Z"/><path class="cls-1" d="M252.22,416.92a153.08,153.08,0,0,0,4.84-36.65c0-2.79,0-5.56-.16-8.31a104.15,104.15,0,0,1-4.74,11.35c-7.45,15.18-18.35,27.82-31.1,36.07a65.84,65.84,0,0,1-18.76,8.44A55.85,55.85,0,0,0,240,447.37,118.81,118.81,0,0,0,252.22,416.92Z"/></g><path class="cls-2" d="M472.68,156.32C442,74,368.14,12.72,278.63,0a146.38,146.38,0,0,0,48.86,284.4c74.65,0,136.13-55.88,145.19-128.08Z"/><path class="cls-1" d="M289.75,137.94a37.75,37.75,0,1,0,37.74-37.75,37.74,37.74,0,0,0-37.74,37.75Z"/><path class="cls-1" d="M53.19,89.53l60.23,46.88,43.18,6.67a50.41,50.41,0,0,0-22.79-60.65A49.59,49.59,0,0,0,113.6,35.32,245.12,245.12,0,0,0,53.19,89.53Z"/><path class="cls-3" d="M244,241.51H0A245,245,0,0,0,5.63,293.6Z"/><path class="cls-4" d="M159.46,151.47c-.28,0-.55.08-.83.09a42,42,0,0,0-41.14-33.67c-1,0-1.87.22-2.82.29A49.62,49.62,0,0,0,56.32,85.61a242.94,242.94,0,0,0-55.22,133H159.46a33.59,33.59,0,0,0,0-67.17Z"/><path class="cls-2" d="M247.54,137.94a80,80,0,0,0,159.91.06v-.06a80,80,0,1,0-159.91,0Z"/><path class="cls-5" d="M434.16,88.69A53.84,53.84,0,0,0,400.23,122c-1-.06-2-.16-3.07-.16a53.67,53.67,0,0,0-50.69,36.11c-1-.09-2-.3-3-.3a35.8,35.8,0,0,0-35.81,35.8,17.9,17.9,0,1,0,0,35.8h180A242.82,242.82,0,0,0,434.16,88.69Z"/><path class="cls-3" d="M244,241.51v244A243.26,243.26,0,0,0,337.39,467Z"/><path class="cls-6" d="M150.61,467A243.26,243.26,0,0,0,244,485.51v-244L150.61,467Z"/><path class="cls-1" d="M71.47,414A244.3,244.3,0,0,0,150.61,467L244,241.51Z"/><path class="cls-7" d="M416.53,414,244,241.51,337.39,467A244.3,244.3,0,0,0,416.53,414Zm-398-79.14A244.3,244.3,0,0,0,71.47,414L244,241.51Z"/><path class="cls-8" d="M3.1,280.28A241.79,241.79,0,0,0,18.55,334.9L244,241.51ZM416.53,414a244.3,244.3,0,0,0,52.92-79.14L244,241.51,416.53,414Z"/><path class="cls-9" d="M244,241.51H488a245,245,0,0,1-5.63,52.09Z"/><path class="cls-10" d="M244,241.51,469.45,334.9h0a242.08,242.08,0,0,0,15.45-54.61Z"/></g></g></svg>