<svg xmlns="http://www.w3.org/2000/svg" viewBox="0 0 489 489"><defs><style>.cls-1{fill:#9af4ef;}.cls-2{fill:#00c8b4;}.cls-3{fill:#52c883;}.cls-4{fill:#34be71;}.cls-5{fill:#00a07d;}.cls-6{fill:#00827e;}.cls-7{fill:#4f6e6e;}.cls-8{fill:#6c5f59;}.cls-9{fill:#805f59;}.cls-10{fill:#fff;}.cls-11{fill:#36b294;}</style></defs><title>logo_icon</title><g id="Слой_2" data-name="Слой 2"><g id="Слой_1-2" data-name="Слой 1"><path class="cls-1" d="M0,244.5C0,379.53,109.47,489,244.5,489S489,379.53,489,244.5,379.53,0,244.5,0,0,109.47,0,244.5Z"/><path class="cls-2" d="M469.45,148.59a28.92,28.92,0,0,0-20,11.09,22.5,22.5,0,0,0-15.74,1.73,23.52,23.52,0,0,0-37.5-6.54,22.55,22.55,0,0,0-17.15.94,23.38,23.38,0,0,0-29.76-3.94,23.68,23.68,0,1,0-5.11,35.75,23.29,23.29,0,0,0,27.45,5.77c4.32,4.64,16.92,25.68,23.76,25.68,6.37,0,5.64-20.65,9.9-24.74a22.32,22.32,0,0,0,17.55-1.16,23.52,23.52,0,0,0,34.62,8.91,28.22,28.22,0,0,0,28,1,242.88,242.88,0,0,0-16-54.54Zm-306.94-4.7a23.57,23.57,0,0,0-16.31,6.58,23.38,23.38,0,0,0-30.72-1.57,23.32,23.32,0,0,0-32.8,3.93A22.21,22.21,0,0,0,66,154.19a24.74,24.74,0,0,0-34.36.73A27.81,27.81,0,0,0,19,151.8c-.27,0-.52.08-.78.08a242.27,242.27,0,0,0-14.7,51.51A27.93,27.93,0,0,0,19,208.06c9.47,0,25.91,7.18,31,0,2.33.72,4.06-4.15,6.63-4.15,4.5,0,1.28-7.82,4.92-9.91a23.32,23.32,0,0,0,33-3.77,22.6,22.6,0,0,0,20.94-4,23.38,23.38,0,0,0,30.72-1.57,23.66,23.66,0,1,0,16.31-40.79Z"/><path class="cls-3" d="M0,245.59C.62,380.12,109.83,489,244.5,489S488.38,380.12,489,245.59Z"/><path class="cls-4" d="M35.4,371.23c56.92-3.93,133.28,44.71,201.46,44.71,135.43,0,153.45-50.48,220.07-50.48a243.23,243.23,0,0,0,32-119.87H0A243.39,243.39,0,0,0,35.4,371.23Z"/><path class="cls-5" d="M27.15,356.46c58.23-2.44,165.66-7.74,246.13,4.18,68.13,10.1,144.41.11,193-13.47A243,243,0,0,0,489,245.59H0A243.31,243.31,0,0,0,27.15,356.46Z"/><path class="cls-6" d="M11.81,319.44c37.22,20,98.64,25.71,171.56,18.08,79.59-8.34,159.85-9.72,217.78-5.21,32,2.49,56.33.82,71.79-1.17a242.45,242.45,0,0,0,16-85.55H0A243.68,243.68,0,0,0,11.81,319.44Z"/><path class="cls-7" d="M470.25,338.4q4.44-10.66,7.89-21.81l-3.26-71h-2.59ZM23.35,348.75l-4.53-99H16.29l-1.71,77.93Q18.47,338.43,23.35,348.75Z"/><path class="cls-5" d="M466.34,180.07c-8,0-15.35,10-21.31,23.1a242.9,242.9,0,0,0,.76,86.93,35.26,35.26,0,0,0,38.64,1.47,245.1,245.1,0,0,0-.21-95.28C479,186.73,472.86,180.07,466.34,180.07Zm-462,110a35.8,35.8,0,0,0,56.41-29.33c0-19.81-16-80.7-35.86-80.7-8,0-15.35,10-21.31,23.1a242.9,242.9,0,0,0,.76,86.93Z"/><path class="cls-6" d="M235.74,347.92H226l2.33-105.74h2.52Zm-28.89,2.32h-9.7l2.33-105.74H202Zm60.89-2.32h-8.3l2-90.57h2.16Zm-12.82-5.27h-8.3l2-90.57h2.16Zm54.3,5.27h-8.31l2-90.57h2.16Zm83.8-3.56h-8.31l2-90.57h2.16Zm42.92-1.71h-8.31l2-90.57h2.16Zm19.1-2.32h-8.31l2-90.57h2.16ZM60.77,345.51h-8.3l2-90.57h2.16Zm-25.46-1.15H27l2-90.57h2.16Zm151.48,3.56h-9.7l2.33-105.74h2.52Zm-33.14,0H144l2.32-105.74h2.52Zm-23.76,0h-9.7l2.33-105.74H125ZM95.68,346.4H86l2.33-105.74h2.52Z"/><path class="cls-7" d="M273.28,360.64h-9.69l2.33-105.74h2.52ZM296,358.71h-9.69L288.58,253h2.52Zm35.75,0H322L324.33,253h2.53Zm30.09-2h-9.7L354.42,251h2.52Zm36.77-3.63h-9.7l2.33-105.73h2.52Zm42.92-5.21h-9.7l2.33-105.74h2.52Zm19.1,4.07h-9.69l2.32-105.74h2.52ZM70.42,356.72h-9.7L63.05,251h2.52Zm-29.56,2h-9.7L33.49,253H36Z"/><path class="cls-8" d="M181.94,380H168.68l3.18-144.53h3.45Zm40.46,0H209.15l3.18-144.53h3.45Zm59.29-1.21H268.44l3.18-144.53h3.44Zm36.63,0H305.06l3.18-144.53h3.45ZM382.76,380H369.51l3.18-144.53h3.45Zm36.46-4.28H406l3.18-144.53h3.44ZM125,371.34H111.79L115,226.81h3.44Z"/><path class="cls-7" d="M102.3,358.71H92.61L94.93,253h2.53Zm60.21.72h-9.7l2.33-105.74h2.52ZM202,360.64h-9.7l2.33-105.74h2.52Zm39.71,0H232l2.33-105.74h2.52Z"/><path class="cls-8" d="M56.62,372.49H43.37L46.55,228H50Z"/><path class="cls-4" d="M467.05,282.5a47.45,47.45,0,1,1-94.9,0c0-26.21,21.24-106.77,47.45-106.77s47.45,80.56,47.45,106.77Z"/><path class="cls-9" d="M417.14,293.53,414.88,389h13.93l-4.72-95.5Z"/><path class="cls-9" d="M419.6,307.93l21.76-17.7L444,295,419.6,316.77Z"/><path class="cls-3" d="M419.6,175.73c-6.55,0-12.78,5-18.45,13a14,14,0,0,1,5.3-1.11c26.2,0,47.45,80.55,47.45,106.76A47.2,47.2,0,0,1,444.19,323a47.36,47.36,0,0,0,22.86-40.52c0-26.21-21.25-106.77-47.45-106.77Z"/><path class="cls-4" d="M125,278.42a49.27,49.27,0,1,1-98.53,0c0-27.21,22.06-110.84,49.26-110.84S125,251.21,125,278.42Z"/><path class="cls-9" d="M73.22,289.87,70.87,389H85.34l-4.9-99.16Z"/><path class="cls-9" d="M75.77,304.82l22.6-18.37,2.71,5L75.77,314Z"/><path class="cls-3" d="M75.77,167.58c-6.79,0-13.26,5.21-19.15,13.46a14.44,14.44,0,0,1,5.5-1.16c27.21,0,49.27,83.64,49.27,110.85a49,49,0,0,1-10.08,29.77A49.2,49.2,0,0,0,125,278.42c0-27.21-22.06-110.84-49.27-110.84Z"/><path class="cls-10" d="M209.67,93.45a27,27,0,0,0-8.13,1.37,45.23,45.23,0,0,0-74.41,0,26.87,26.87,0,0,0-35.34,25.83H236.88a27.2,27.2,0,0,0-27.21-27.2Z"/><path class="cls-10" d="M344.48,104.44a17.41,17.41,0,0,0-5.18.87,28.78,28.78,0,0,0-47.34,0,17.09,17.09,0,0,0-22.48,16.44h92.31a17.31,17.31,0,0,0-17.31-17.31Z"/><path class="cls-5" d="M287.69,228.23a37.87,37.87,0,0,1-1.17-9.16,37.05,37.05,0,0,1,43.58-37,42.48,42.48,0,0,1,22.32-6.36,43.16,43.16,0,0,1,43,43.34c0,1.07-.08,2.13-.16,3.18a69.33,69.33,0,0,1,17.35,45.93c0,38.29-30.78,69.34-68.76,69.34s-68.77-31-68.77-69.34a69.3,69.3,0,0,1,12.63-40Z"/><path class="cls-9" d="M350.09,389h-12l2.89-121.93h3.13Z"/><path class="cls-9" d="M342,314.15l-27.08-22-3.25,1.8L342,321Zm1.81-26.69-18.38-14.95-2.21,1.23,20.59,18.38Zm0,15.13,27.08-22,3.25,1.81-30.33,27.08Z"/><path class="cls-11" d="M395.24,222.25c.08-1.05.16-2.11.16-3.18a43.16,43.16,0,0,0-43-43.34,42.39,42.39,0,0,0-22.32,6.36,37.72,37.72,0,0,0-6.33-.58A36.91,36.91,0,0,0,296,194.32,36.83,36.83,0,0,1,308.49,192a37.6,37.6,0,0,1,6.32.58,42.53,42.53,0,0,1,22.33-6.35,43.15,43.15,0,0,1,43,43.33c0,1.08-.08,2.13-.16,3.18a69.48,69.48,0,0,1-5.56,97.5,69.48,69.48,0,0,0,20.84-108Z"/><path class="cls-5" d="M204.24,212a41.15,41.15,0,0,0-47.08-50.8,47.64,47.64,0,0,0-72.5,40.72c0,1.18.09,2.34.17,3.5A76.32,76.32,0,1,0,204.24,212Z"/><path class="cls-11" d="M204.24,212a41.15,41.15,0,0,0-47.08-50.8A47.61,47.61,0,0,0,88.6,182.92a46.41,46.41,0,0,1,59.17-9.26,39.75,39.75,0,0,1,45.74,49,73.07,73.07,0,0,1-14.26,99.88,76.21,76.21,0,0,0,25-110.54Z"/><path class="cls-9" d="M148.8,389H135.55l3.18-144.53h3.45Z"/><path class="cls-9" d="M139.92,300.22,110.1,276l-3.57,2,33.39,29.82Zm2-12.73,29.82-24.25,3.58,2-33.4,29.82Z"/><path class="cls-4" d="M319.36,176.39a49.43,49.43,0,0,0-56.55-61,57.22,57.22,0,0,0-87.08,48.89c0,1.42.12,2.82.22,4.21a91.67,91.67,0,1,0,143.41,7.91Z"/><path class="cls-3" d="M319.36,176.39a49.43,49.43,0,0,0-56.55-61,57.17,57.17,0,0,0-82.34,26.11,55.72,55.72,0,0,1,71.07-11.13A48,48,0,0,1,308,177.51a47.38,47.38,0,0,1-1.5,11.68,87.74,87.74,0,0,1-17.13,120,91.51,91.51,0,0,0,30-132.76Zm-152.19,5.17c0-.42,0-.84-.07-1.26-1,1.54-1.88,3.13-2.77,4.73C165.27,183.87,166.17,182.68,167.17,181.56Z"/><path class="cls-10" d="M197.28,63.18A19.19,19.19,0,0,1,216.47,44a18.92,18.92,0,0,1,4.61.63,27.33,27.33,0,0,1,47.47,18.56Z"/><path class="cls-10" d="M296,67a11.5,11.5,0,0,0-14.4-11.25A16.54,16.54,0,0,0,252.82,67Z"/><path class="cls-10" d="M343.83,92.9A13.48,13.48,0,0,1,357.3,79.41a13.33,13.33,0,0,1,3.24.44A19.18,19.18,0,0,1,393.86,92.9Z"/><g id="Слой_1-2-2" data-name="Слой 1-2"><path class="cls-10" d="M262.74,180.89A155.79,155.79,0,0,1,267.06,220a190.16,190.16,0,0,1-6,45.36,161.19,161.19,0,0,1-8.36,24.33,56.13,56.13,0,0,0,10-108.8Z"/><path class="cls-10" d="M215,245.56c9.88-6.39,18.33-16.19,24.11-28a79.9,79.9,0,0,0,8-39.55c-.75,0-1.51-.05-2.27-.05a56.15,56.15,0,0,0-52.67,75.5A48.44,48.44,0,0,0,215,245.56Z"/><path class="cls-10" d="M252.16,259.49A154.37,154.37,0,0,0,257,222.76c0-2.8,0-5.57-.16-8.33a103.71,103.71,0,0,1-4.75,11.37C244.62,241,233.7,253.69,220.92,262a66.07,66.07,0,0,1-18.79,8.46A56,56,0,0,0,239.87,290,119.44,119.44,0,0,0,252.16,259.49Z"/></g></g></g></svg>